<?xml version="1.0" standalone="no"?>
<!DOCTYPE svg PUBLIC "-//W3C//DTD SVG 20010904//EN"
 "http://www.w3.org/TR/2001/REC-SVG-20010904/DTD/svg10.dtd">
<svg version="1.0" xmlns="http://www.w3.org/2000/svg"
 width="180.000000pt" height="180.000000pt" viewBox="0 0 180.000000 180.000000"
 preserveAspectRatio="xMidYMid meet">
<metadata>
Created by potrace 1.16, written by Peter Selinger 2001-2019
</metadata>
<g transform="translate(0.000000,180.000000) scale(0.100000,-0.100000)"
fill="#000000" stroke="none">
<path d="M89 1481 l-29 -29 0 -541 0 -541 845 0 845 0 0 530 c0 568 0 574 -49
600 -13 7 -284 10 -801 10 l-782 0 -29 -29z m1518 -538 l-2 -428 -700 0 -700
0 -3 428 -2 427 705 0 704 0 -2 -427z"/>
<path d="M799 1274 c-102 -31 -204 -135 -228 -231 -33 -129 -1 -255 88 -344
78 -78 145 -102 261 -97 139 7 242 75 298 196 23 48 27 70 27 147 0 79 -4 97
-28 145 -81 159 -254 235 -418 184z m6 -92 c-39 -54 -71 -125 -81 -177 -6 -35
-6 -35 -60 -35 -50 0 -54 2 -54 24 0 34 32 105 65 144 30 36 120 92 147 92 15
0 12 -9 -17 -48z m232 27 c56 -27 127 -107 147 -166 24 -71 23 -73 -38 -73
l-53 0 -18 65 c-10 37 -36 92 -61 130 -24 36 -38 65 -32 65 6 0 31 -9 55 -21z
m-27 -124 c15 -33 31 -72 34 -87 l6 -28 -60 0 -60 0 0 118 1 117 25 -30 c14
-16 38 -57 54 -90z m-130 -5 l0 -110 -60 0 c-33 0 -60 2 -60 5 0 3 9 33 21 67
21 63 72 148 89 148 6 0 10 -47 10 -110z m-151 -212 c17 -64 51 -134 87 -177
14 -18 24 -34 21 -37 -11 -12 -104 39 -145 79 -41 40 -82 124 -82 167 0 17 7
20 53 20 l53 0 13 -52z m151 -65 c0 -115 0 -116 -20 -98 -30 27 -66 93 -84
154 -9 30 -16 56 -16 58 0 2 27 3 60 3 l60 0 0 -117z m170 114 c0 -43 -79
-203 -109 -221 -8 -5 -11 28 -11 108 l0 116 60 0 c33 0 60 -1 60 -3z m150 -12
c0 -32 -42 -124 -74 -161 -31 -36 -141 -102 -153 -91 -2 3 11 26 30 51 35 45
68 119 82 184 6 31 8 32 61 32 41 0 54 -4 54 -15z"/>
<path d="M0 195 l0 -75 900 0 900 0 0 75 0 75 -369 0 -370 0 -3 -22 c-3 -23
-6 -23 -155 -26 l-153 -3 0 26 0 25 -375 0 -375 0 0 -75z"/>
</g>
</svg>
